<svg width="1231" height="225" viewBox="0 0 1231 225" fill="none" xmlns="http://www.w3.org/2000/svg">
<path d="M232.479 50H259.945L307.699 166.602H309.457L357.211 50H384.677V200H363.144V91.4551H361.752L317.514 199.78H299.643L255.404 91.3818H254.013V200H232.479V50ZM451.934 202.271C440.85 202.271 431.304 199.902 423.297 195.166C415.338 190.381 409.185 183.667 404.84 175.024C400.543 166.333 398.394 156.152 398.394 144.482C398.394 132.959 400.543 122.803 404.84 114.014C409.185 105.225 415.24 98.3643 423.004 93.4326C430.816 88.501 439.947 86.0352 450.396 86.0352C456.744 86.0352 462.896 87.085 468.853 89.1846C474.81 91.2842 480.157 94.5801 484.893 99.0723C489.63 103.564 493.365 109.399 496.099 116.577C498.834 123.706 500.201 132.373 500.201 142.578V150.342H410.772V133.936H478.741C478.741 128.174 477.569 123.071 475.225 118.628C472.882 114.136 469.586 110.596 465.338 108.008C461.138 105.42 456.207 104.126 450.543 104.126C444.39 104.126 439.019 105.64 434.429 108.667C429.888 111.646 426.373 115.552 423.883 120.386C421.441 125.171 420.22 130.371 420.22 135.986V148.804C420.22 156.323 421.539 162.72 424.176 167.993C426.861 173.267 430.596 177.295 435.382 180.078C440.167 182.812 445.758 184.18 452.154 184.18C456.304 184.18 460.089 183.594 463.507 182.422C466.925 181.201 469.879 179.395 472.369 177.002C474.859 174.609 476.763 171.655 478.082 168.14L498.809 171.875C497.149 177.979 494.171 183.325 489.874 187.915C485.626 192.456 480.279 195.996 473.834 198.535C467.437 201.025 460.137 202.271 451.934 202.271ZM559.512 202.271C548.623 202.271 539.248 199.805 531.387 194.873C523.574 189.893 517.568 183.032 513.369 174.292C509.17 165.552 507.07 155.542 507.07 144.263C507.07 132.837 509.219 122.754 513.516 114.014C517.812 105.225 523.867 98.3643 531.68 93.4326C539.492 88.501 548.696 86.0352 559.292 86.0352C567.837 86.0352 575.454 87.6221 582.144 90.7959C588.833 93.9209 594.229 98.3154 598.33 103.979C602.48 109.644 604.946 116.26 605.728 123.828H584.414C583.242 118.555 580.557 114.014 576.357 110.205C572.207 106.396 566.641 104.492 559.658 104.492C553.555 104.492 548.208 106.104 543.618 109.326C539.077 112.5 535.537 117.041 532.998 122.949C530.459 128.809 529.189 135.742 529.189 143.75C529.189 151.953 530.435 159.033 532.925 164.99C535.415 170.947 538.931 175.562 543.472 178.833C548.062 182.104 553.457 183.74 559.658 183.74C563.809 183.74 567.568 182.983 570.938 181.47C574.355 179.907 577.212 177.686 579.507 174.805C581.851 171.924 583.486 168.457 584.414 164.404H605.728C604.946 171.68 602.578 178.174 598.623 183.887C594.668 189.6 589.37 194.092 582.729 197.363C576.138 200.635 568.398 202.271 559.512 202.271ZM638.671 133.203V200H616.772V50H638.378V105.811H639.77C642.406 99.7559 646.435 94.9463 651.855 91.3818C657.275 87.8174 664.355 86.0352 673.095 86.0352C680.81 86.0352 687.548 87.6221 693.31 90.7959C699.12 93.9697 703.613 98.7061 706.786 105.005C710.009 111.255 711.62 119.067 711.62 128.442V200H689.721V131.079C689.721 122.827 687.597 116.431 683.349 111.89C679.101 107.3 673.193 105.005 665.624 105.005C660.448 105.005 655.81 106.104 651.708 108.301C647.656 110.498 644.457 113.721 642.114 117.969C639.819 122.168 638.671 127.246 638.671 133.203ZM750.368 50V200H728.469V50H750.368ZM800.194 202.49C793.065 202.49 786.62 201.172 780.858 198.535C775.097 195.85 770.531 191.968 767.162 186.89C763.842 181.812 762.182 175.586 762.182 168.213C762.182 161.865 763.402 156.641 765.844 152.539C768.285 148.437 771.581 145.19 775.731 142.798C779.882 140.405 784.521 138.599 789.647 137.378C794.774 136.157 799.999 135.229 805.321 134.595C812.06 133.813 817.528 133.179 821.728 132.69C825.927 132.153 828.979 131.299 830.883 130.127C832.787 128.955 833.739 127.051 833.739 124.414V123.901C833.739 117.505 831.933 112.549 828.319 109.033C824.755 105.518 819.433 103.76 812.353 103.76C804.979 103.76 799.169 105.396 794.921 108.667C790.722 111.89 787.816 115.479 786.205 119.434L765.624 114.746C768.065 107.91 771.63 102.393 776.317 98.1934C781.054 93.9453 786.498 90.8691 792.65 88.9648C798.803 87.0117 805.272 86.0352 812.06 86.0352C816.552 86.0352 821.313 86.5723 826.342 87.6465C831.42 88.6719 836.156 90.5762 840.551 93.3594C844.994 96.1426 848.632 100.122 851.464 105.298C854.296 110.425 855.712 117.09 855.712 125.293V200H834.325V184.619H833.446C832.03 187.451 829.906 190.234 827.074 192.969C824.242 195.703 820.604 197.974 816.161 199.78C811.718 201.587 806.396 202.49 800.194 202.49ZM804.955 184.912C811.01 184.912 816.186 183.716 820.482 181.323C824.828 178.931 828.124 175.806 830.37 171.948C832.665 168.042 833.813 163.867 833.813 159.424V144.922C833.031 145.703 831.518 146.436 829.271 147.119C827.074 147.754 824.56 148.315 821.728 148.804C818.896 149.243 816.137 149.658 813.451 150.049C810.766 150.391 808.52 150.684 806.713 150.928C802.465 151.465 798.583 152.368 795.067 153.638C791.601 154.907 788.817 156.738 786.718 159.131C784.667 161.475 783.642 164.6 783.642 168.506C783.642 173.926 785.644 178.027 789.647 180.811C793.651 183.545 798.754 184.912 804.955 184.912ZM874.263 200V50H896.163V105.737H897.481C898.751 103.394 900.582 100.684 902.974 97.6074C905.367 94.5312 908.687 91.8457 912.935 89.5508C917.183 87.207 922.799 86.0352 929.781 86.0352C938.863 86.0352 946.969 88.3301 954.097 92.9199C961.226 97.5098 966.817 104.126 970.87 112.769C974.971 121.411 977.022 131.812 977.022 143.97C977.022 156.128 974.996 166.553 970.943 175.244C966.89 183.887 961.324 190.552 954.244 195.239C947.164 199.878 939.083 202.197 930.001 202.197C923.165 202.197 917.574 201.05 913.228 198.755C908.931 196.46 905.562 193.774 903.121 190.698C900.679 187.622 898.8 184.888 897.481 182.495H895.65V200H874.263ZM895.723 143.75C895.723 151.66 896.871 158.594 899.166 164.551C901.461 170.508 904.781 175.171 909.127 178.54C913.472 181.86 918.795 183.521 925.094 183.521C931.636 183.521 937.105 181.787 941.5 178.32C945.894 174.805 949.215 170.044 951.461 164.038C953.756 158.032 954.903 151.27 954.903 143.75C954.903 136.328 953.78 129.663 951.534 123.755C949.337 117.847 946.016 113.184 941.573 109.766C937.178 106.348 931.685 104.639 925.094 104.639C918.746 104.639 913.375 106.274 908.98 109.546C904.635 112.817 901.339 117.383 899.093 123.242C896.846 129.102 895.723 135.937 895.723 143.75ZM1073.54 114.966L1053.69 118.481C1052.86 115.942 1051.54 113.525 1049.74 111.23C1047.98 108.936 1045.59 107.056 1042.56 105.591C1039.53 104.126 1035.75 103.394 1031.21 103.394C1025 103.394 1019.83 104.785 1015.68 107.568C1011.53 110.303 1009.45 113.843 1009.45 118.188C1009.45 121.948 1010.84 124.976 1013.63 127.271C1016.41 129.565 1020.9 131.445 1027.1 132.91L1044.98 137.012C1055.33 139.404 1063.04 143.091 1068.12 148.071C1073.2 153.052 1075.74 159.521 1075.74 167.48C1075.74 174.219 1073.78 180.225 1069.88 185.498C1066.02 190.723 1060.63 194.824 1053.69 197.803C1046.81 200.781 1038.82 202.271 1029.74 202.271C1017.14 202.271 1006.87 199.585 998.906 194.214C990.947 188.794 986.064 181.104 984.258 171.143L1005.42 167.92C1006.74 173.437 1009.45 177.612 1013.55 180.444C1017.66 183.228 1023 184.619 1029.59 184.619C1036.77 184.619 1042.51 183.13 1046.81 180.151C1051.1 177.124 1053.25 173.437 1053.25 169.092C1053.25 165.576 1051.93 162.622 1049.3 160.229C1046.71 157.837 1042.73 156.03 1037.36 154.81L1018.32 150.635C1007.82 148.242 1000.05 144.434 995.024 139.209C990.044 133.984 987.554 127.368 987.554 119.36C987.554 112.72 989.409 106.909 993.12 101.929C996.831 96.9482 1001.96 93.0664 1008.5 90.2832C1015.04 87.4512 1022.54 86.0352 1030.99 86.0352C1043.14 86.0352 1052.71 88.6719 1059.7 93.9453C1066.68 99.1699 1071.29 106.177 1073.54 114.966Z" fill="white"/>
<path d="M25 50V105.763L27.4213 108.185L25 110.606V112.927L32.6451 105.282L35.548 108.185L25 118.733V121.054L40.7718 105.282L43.6747 108.185L25 126.859V129.18L48.8986 105.282L51.8014 108.185L25 134.986V137.307L57.0253 105.282L59.9282 108.185L25 143.113V200H175V50H25ZM28.6252 141.815L65.152 105.288L68.0549 108.191L31.5281 144.718L28.6252 141.815ZM36.7519 141.815L73.2787 105.288L76.1817 108.191L39.6548 144.718L36.7519 141.815ZM44.8787 141.815L81.4055 105.288L84.3083 108.191L47.7815 144.718L44.8787 141.815ZM53.0054 141.815L89.5322 105.288L92.4351 108.191L55.9083 144.718L53.0054 141.815ZM61.1322 141.815L97.659 105.288L100.562 108.191L64.035 144.718L61.1322 141.815ZM69.2588 141.815L105.786 105.288L108.689 108.191L72.1618 144.718L69.2588 141.815ZM77.3856 141.815L113.912 105.288L116.815 108.191L80.2884 144.718L77.3856 141.815ZM120.915 144.718L118.013 141.815L121.27 138.558L124.173 141.461L120.915 144.718ZM112.789 144.718L109.886 141.815L121.27 130.431L124.173 133.334L112.789 144.718ZM104.662 144.718L101.759 141.815L121.27 122.304L124.173 125.207L104.662 144.718ZM96.5352 144.718L93.6324 141.815L121.27 114.178L124.173 117.08L96.5352 144.718ZM88.4085 144.718L85.5056 141.815L121.27 106.051L124.173 108.954L88.4085 144.718Z" fill="white"/>
</svg>
